<?xml version="1.0" standalone="no"?>
<!DOCTYPE svg PUBLIC "-//W3C//DTD SVG 20010904//EN"
 "http://www.w3.org/TR/2001/REC-SVG-20010904/DTD/svg10.dtd">
<svg version="1.0" xmlns="http://www.w3.org/2000/svg"
 width="400.000000pt" height="400.000000pt" viewBox="0 0 400.000000 400.000000"
 preserveAspectRatio="xMidYMid meet">

<g transform="translate(0.000000,400.000000) scale(0.100000,-0.100000)"
fill="#000000" stroke="none">
<path d="M1712 3778 c-11 -40 -24 -111 -28 -158 l-8 -85 -8 59 c-14 103 -21
75 -15 -64 4 -102 11 -159 31 -234 15 -55 30 -104 33 -109 3 -6 1 -7 -5 -3
-27 17 -97 202 -113 300 -6 37 -7 17 -4 -69 4 -132 19 -196 80 -335 20 -47 43
-101 51 -120 l14 -35 -20 25 c-49 61 -118 169 -138 215 -19 45 -21 47 -21 20
0 -16 8 -55 19 -85 10 -30 17 -56 16 -57 -8 -8 -76 148 -86 197 -7 33 -8 32
-9 -16 -2 -73 17 -160 49 -231 28 -61 122 -212 151 -243 8 -8 43 -51 79 -95
60 -75 61 -78 25 -51 -185 137 -294 260 -344 386 l-21 55 6 -60 c3 -33 20 -93
36 -133 34 -82 127 -215 182 -258 55 -44 43 -48 -26 -10 -118 65 -208 158
-250 258 -18 43 -18 43 -13 8 13 -78 49 -160 92 -210 35 -39 41 -50 26 -50
-11 -1 -5 -7 16 -16 41 -17 36 -29 -5 -14 l-29 10 25 -20 c34 -29 100 -59 130
-60 14 -1 34 -6 45 -11 14 -6 5 -7 -27 -3 -27 4 -48 2 -48 -3 0 -5 30 -22 67
-38 81 -36 57 -46 -39 -17 -90 28 -156 66 -206 119 -35 38 -41 41 -32 18 31
-82 113 -158 209 -196 43 -17 44 -18 16 -19 -29 -1 -29 -1 -10 -16 11 -9 48
-29 83 -45 34 -16 62 -31 62 -34 0 -9 -112 6 -169 22 -56 15 -90 32 -130 67
l-24 21 11 -21 c21 -40 101 -101 162 -123 52 -19 175 -39 260 -41 l25 -1 -25
-11 c-14 -7 -83 -12 -157 -12 -73 -1 -133 -2 -133 -4 0 -2 26 -15 58 -30 53
-25 66 -27 192 -27 152 0 217 13 390 75 125 46 183 71 230 101 l35 23 -25 -27
c-23 -26 -136 -96 -210 -129 -47 -22 -180 -64 -265 -84 -97 -23 -306 -24 -357
-1 -54 23 -47 5 8 -22 26 -13 76 -26 117 -31 58 -6 63 -8 27 -9 -54 -2 -37
-20 20 -22 32 -1 33 -2 10 -9 -36 -12 -144 -12 -175 0 -17 6 -24 6 -20 0 8
-14 102 -40 142 -40 53 0 171 30 240 61 35 15 63 27 63 25 0 -7 -101 -67 -144
-86 -55 -23 -164 -50 -209 -51 -32 0 -32 0 -7 -10 14 -6 50 -8 80 -5 30 2 47
2 38 0 -10 -3 -18 -14 -18 -24 0 -13 -5 -17 -14 -14 -9 3 -31 -17 -59 -53 -51
-66 -97 -110 -60 -57 12 17 29 37 38 44 9 7 21 23 27 34 10 18 9 19 -4 9 -8
-7 -18 -9 -22 -5 -4 4 -6 0 -4 -8 2 -8 -1 -14 -7 -15 -9 0 -58 -35 -108 -78
-30 -25 0 -10 43 22 l34 25 -19 -26 c-11 -14 -22 -24 -24 -22 -2 2 -16 -5 -30
-15 -44 -31 -470 -251 -487 -251 -12 -1 -121 -69 -111 -70 7 0 159 62 236 96
49 22 48 11 -2 -16 -231 -128 -532 -371 -668 -540 -74 -92 -81 -104 -25 -40
136 153 314 305 467 398 91 55 388 206 394 200 4 -4 -55 -64 -234 -238 -67
-66 -152 -162 -147 -167 3 -3 46 36 96 86 51 50 94 91 96 91 3 0 -14 -26 -38
-57 -102 -135 -187 -290 -259 -470 -31 -76 -73 -237 -67 -255 2 -6 10 15 17
48 17 79 53 177 113 304 78 165 140 259 302 460 94 115 108 131 159 185 45 46
43 43 -19 -40 -129 -172 -276 -416 -260 -432 9 -10 182 185 230 259 10 15 22
25 27 22 5 -3 6 1 3 9 -3 8 3 20 13 28 17 13 17 13 3 -6 -15 -20 -14 -20 8 -1
23 20 31 43 10 30 -7 -4 -8 -3 -4 5 4 6 11 9 16 6 5 -3 11 -1 15 5 4 6 10 8
15 5 5 -3 12 0 16 6 4 8 3 9 -4 5 -7 -4 -12 -1 -12 6 0 9 -3 9 -10 -2 -5 -8
-10 -11 -10 -6 0 9 69 106 76 106 2 0 -2 -10 -11 -23 -8 -13 -12 -27 -8 -32 5
-4 2 -4 -6 0 -11 6 -13 4 -8 -9 4 -9 3 -14 -2 -11 -5 3 -12 1 -15 -4 -17 -26
30 1 78 47 71 67 85 68 21 1 -44 -45 -46 -49 -20 -37 34 17 108 36 145 37 162
6 198 6 194 -1 -3 -4 20 -8 52 -8 l56 0 -23 -21 c-17 -15 -19 -19 -7 -15 12 4
17 0 16 -12 -3 -34 2 -62 11 -62 5 0 7 9 4 20 -3 11 -2 31 1 45 12 47 86 20
86 -31 0 -10 5 -26 10 -34 8 -12 10 -11 10 8 0 32 18 27 22 -5 l3 -28 6 28 c5
23 1 35 -23 59 -33 34 -31 43 7 34 22 -6 25 -9 15 -21 -10 -12 -9 -16 6 -21
11 -4 23 -9 27 -11 4 -3 5 7 1 22 -6 25 -5 26 15 16 19 -11 25 -25 24 -59 -1
-6 3 -12 8 -12 5 0 9 18 9 40 0 38 -3 42 -41 59 l-41 19 58 17 c33 9 85 28
116 41 32 13 61 24 65 23 21 -3 35 4 68 33 19 18 38 33 43 34 18 2 42 17 42
27 0 5 -10 2 -22 -9 l-23 -19 19 22 c10 13 22 20 27 18 7 -5 58 61 73 95 3 8
4 5 2 -7 -6 -32 0 -29 27 15 36 58 76 162 83 214 4 26 10 45 14 43 10 -6 20
19 20 48 0 44 58 188 93 230 42 51 111 90 190 108 93 20 74 30 -88 45 -57 5
-77 12 -108 36 -60 47 -115 68 -184 68 -120 0 -208 -50 -283 -161 -22 -32 -50
-63 -63 -69 l-22 -11 21 18 c11 10 28 31 38 45 17 27 17 29 -9 85 -15 32 -54
97 -86 144 -33 47 -73 110 -90 140 -28 49 -34 46 -14 -6 13 -32 -56 71 -128
192 -208 352 -323 700 -302 916 3 37 4 67 2 67 -2 0 -13 -33 -25 -72z m988
-1432 c0 -3 -4 -8 -10 -11 -5 -3 -10 -1 -10 4 0 6 5 11 10 11 6 0 10 -2 10 -4z
m70 -16 c0 -5 -2 -10 -4 -10 -3 0 -8 5 -11 10 -3 6 -1 10 4 10 6 0 11 -4 11
-10z m-440 -214 c0 -2 -8 -10 -17 -17 -16 -13 -17 -12 -4 4 13 16 21 21 21 13z
m-40 -30 c0 -2 -8 -10 -17 -17 -16 -13 -17 -12 -4 4 13 16 21 21 21 13z m252
-23 c-2 -16 -9 -34 -15 -41 -8 -11 -5 -11 19 -1 16 7 36 18 44 24 29 23 35 23
35 0 0 -13 -2 -21 -4 -19 -5 5 -41 -84 -41 -100 0 -6 7 -1 16 10 14 18 15 18
4 -3 -6 -13 -14 -22 -18 -21 -10 3 -70 -30 -78 -43 -4 -8 -1 -8 12 -2 11 6 33
9 49 8 24 -1 35 5 53 32 26 37 39 45 20 11 -16 -30 -20 -46 -18 -86 0 -24 -3
-31 -11 -26 -8 4 -9 3 -5 -4 4 -6 0 -24 -8 -39 -8 -16 -15 -24 -16 -19 0 5 -7
3 -15 -4 -8 -7 -15 -9 -15 -5 0 3 -33 -23 -72 -60 -85 -78 -104 -90 -114 -73
-5 7 -2 8 7 3 11 -6 11 -5 3 5 -15 15 -57 4 -48 -13 3 -7 -3 -1 -14 12 -15 19
-23 21 -38 13 -31 -16 -124 -51 -124 -46 0 3 12 11 28 17 32 15 102 57 102 63
0 2 -21 -6 -47 -17 -71 -31 -93 -39 -93 -34 0 2 42 25 93 50 50 26 106 60 122
76 l30 29 -50 -15 c-27 -9 -63 -20 -79 -25 -16 -6 -32 -7 -35 -5 -2 3 1 5 8 5
7 0 9 5 6 10 -4 6 -3 10 2 9 19 -3 34 2 29 10 -3 5 2 15 12 22 15 13 16 12 3
-3 -8 -11 -9 -18 -3 -18 10 0 27 19 27 30 0 7 161 158 200 188 32 25 32 25
-35 5 -10 -3 -8 1 4 11 34 27 -3 18 -40 -10 -19 -15 -34 -24 -34 -21 0 8 133
137 141 137 3 0 4 -12 1 -27z m-258 -102 c7 -10 -38 -54 -47 -45 -3 4 -29 -11
-58 -32 -50 -36 -51 -37 -33 -10 20 31 101 95 121 96 6 0 14 -4 17 -9z m-264
-35 c0 -2 -7 -7 -16 -10 -8 -3 -12 -2 -9 4 6 10 25 14 25 6z m-55 -26 c-3 -5
-12 -10 -18 -10 -7 0 -6 4 3 10 19 12 23 12 15 0z m-108 -46 c-3 -3 -12 -4
-19 -1 -8 3 -5 6 6 6 11 1 17 -2 13 -5z m262 -17 c-2 -1 -13 -9 -24 -17 -19
-14 -19 -14 -6 3 7 9 18 17 24 17 6 0 8 -1 6 -3z m425 -122 c-4 -8 -11 -15
-16 -15 -6 0 -5 6 2 15 7 8 14 15 16 15 2 0 1 -7 -2 -15z m-850 -63 c-4 -18
-11 -29 -16 -26 -13 8 -39 -16 -31 -30 3 -6 2 -8 -2 -3 -5 4 -27 -10 -48 -30
-22 -21 -36 -31 -31 -22 13 23 126 150 131 146 2 -2 0 -18 -3 -35z m606 -36
c0 -2 -7 -7 -16 -10 -8 -3 -12 -2 -9 4 6 10 25 14 25 6z m-380 -36 c-8 -5 -19
-10 -25 -10 -5 0 -3 5 5 10 8 5 20 10 25 10 6 0 3 -5 -5 -10z m-60 -25 c-14
-8 -29 -14 -35 -14 -5 0 1 6 15 14 14 8 30 14 35 14 6 0 -1 -6 -15 -14z m460
10 c0 -13 -37 -23 -51 -13 -12 8 -11 9 2 5 9 -3 22 -1 30 4 16 10 19 11 19 4z
m-510 -29 c0 -2 -7 -7 -16 -10 -8 -3 -12 -2 -9 4 6 10 25 14 25 6z m-440 -41
c-14 -8 -29 -14 -35 -14 -5 0 1 6 15 14 14 8 30 14 35 14 6 0 -1 -6 -15 -14z
m379 11 c-10 -10 -103 -56 -106 -53 -4 5 87 55 101 56 5 1 7 -1 5 -3z m681 0
c0 -2 -7 -7 -16 -10 -8 -3 -12 -2 -9 4 6 10 25 14 25 6z m-1124 -41 c-11 -8
-25 -15 -30 -15 -6 1 0 7 14 15 32 19 40 18 16 0z m-161 -125 c-3 -5 -12 -10
-18 -10 -7 0 -6 4 3 10 19 12 23 12 15 0z"/>
<path d="M2362 1830 c-29 -28 -50 -50 -45 -50 12 1 120 99 108 99 -5 0 -34
-22 -63 -49z"/>
<path d="M2412 1733 c-35 -19 -61 -37 -59 -40 5 -5 113 52 132 68 18 18 -10 6
-73 -28z"/>
<path d="M2306 1675 c-11 -8 -15 -15 -10 -15 6 0 19 7 30 15 10 8 15 14 9 14
-5 0 -19 -6 -29 -14z"/>
<path d="M439 743 c-13 -16 -12 -17 4 -4 9 7 17 15 17 17 0 8 -8 3 -21 -13z"/>
<path d="M821 364 c0 -11 3 -14 6 -6 3 7 2 16 -1 19 -3 4 -6 -2 -5 -13z"/>
<path d="M811 294 c0 -11 3 -14 6 -6 3 7 2 16 -1 19 -3 4 -6 -2 -5 -13z"/>
</g>
</svg>
